<svg xmlns="http://www.w3.org/2000/svg" viewBox="0 0 40 40" fill="none">
  <rect width="40" height="40" rx="9" fill="#FF5A1F"/>
  <path d="M9 15h22v15.5A2.5 2.5 0 0 1 28.5 33h-17A2.5 2.5 0 0 1 9 30.5V15Z" fill="#fff"/>
  <path d="M14 15v-2a6 6 0 0 1 12 0v2" stroke="#fff" stroke-width="3" stroke-linecap="round"/>
  <path d="M15 19v3m2-3v3m2-3v3m-2 0v6" stroke="#FF5A1F" stroke-width="1.7" stroke-linecap="round"/>
  <path d="M24.5 19c-1.5 0-2.5 1.3-2.5 2.8V24c0 .8.6 1.4 1.4 1.4h1.1V29" stroke="#FF5A1F" stroke-width="1.7" stroke-linecap="round" stroke-linejoin="round"/>
</svg>
